<svg width="24" height="30" viewBox="0 0 24 30" fill="none" xmlns="http://www.w3.org/2000/svg">
<path fill-rule="evenodd" clip-rule="evenodd" d="M6.92287 0C6.31085 0 5.7239 0.243124 5.29114 0.675888C4.85837 1.10865 4.61525 1.6956 4.61525 2.30762H2.30762C1.6956 2.30762 1.10865 2.55075 0.675887 2.98351C0.243124 3.41628 0 4.00323 0 4.61525V26.1531C0 26.7651 0.243124 27.352 0.675887 27.7848C1.10865 28.2176 1.6956 28.4607 2.30762 28.4607H11.5381V26.9223H2.30762C2.10362 26.9223 1.90797 26.8412 1.76371 26.697C1.61946 26.5527 1.53842 26.3571 1.53842 26.1531V4.61525C1.53842 4.41124 1.61946 4.21559 1.76371 4.07134C1.90797 3.92708 2.10362 3.84604 2.30762 3.84604H4.61525C4.61525 4.45806 4.85837 5.04501 5.29114 5.47778C5.7239 5.91054 6.31085 6.15367 6.92287 6.15367H13.0765C13.6886 6.15367 14.2755 5.91054 14.7083 5.47778C15.141 5.04501 15.3842 4.45806 15.3842 3.84604H17.6918C17.8958 3.84604 18.0914 3.92708 18.2357 4.07134C18.38 4.21559 18.461 4.41124 18.461 4.61525V16.1534H19.9994V4.61525C19.9994 4.00323 19.7563 3.41628 19.3235 2.98351C18.8908 2.55075 18.3038 2.30762 17.6918 2.30762H15.3842C15.3842 1.6956 15.141 1.10865 14.7083 0.675888C14.2755 0.243124 13.6886 0 13.0765 0H6.92287ZM6.15366 2.30762C6.15366 2.10362 6.23471 1.90797 6.37896 1.76371C6.52321 1.61946 6.71887 1.53842 6.92287 1.53842H13.0765C13.2805 1.53842 13.4762 1.61946 13.6205 1.76371C13.7647 1.90797 13.8457 2.10362 13.8457 2.30762V3.84604C13.8457 4.05005 13.7647 4.2457 13.6205 4.38995C13.4762 4.53421 13.2805 4.61525 13.0765 4.61525H6.92287C6.71887 4.61525 6.52321 4.53421 6.37896 4.38995C6.23471 4.2457 6.15366 4.05005 6.15366 3.84604V2.30762ZM9.2305 11.5381V9.2305H10.7689V11.5381H13.0765V13.0765H10.7689V15.3842H9.2305V13.0765H6.92287V11.5381H9.2305ZM12.3073 18.461C12.3073 18.257 12.3884 18.0613 12.5326 17.9171C12.6769 17.7728 12.8725 17.6918 13.0765 17.6918H22.307C22.511 17.6918 22.7067 17.7728 22.8509 17.9171C22.9952 18.0613 23.0762 18.257 23.0762 18.461V23.6832C23.0762 24.5695 22.8573 25.4422 22.4391 26.2237C22.0208 27.0052 21.4161 27.6713 20.6786 28.163L18.1187 29.8707C17.9923 29.955 17.8437 30 17.6918 30C17.5398 30 17.3913 29.955 17.2649 29.8707L14.705 28.163C13.9676 27.6714 13.3629 27.0054 12.9447 26.224C12.5264 25.4427 12.3075 24.5702 12.3073 23.6839V18.461ZM13.8457 19.2302V23.6832C13.8458 24.3163 14.0022 24.9397 14.301 25.4979C14.5999 26.0561 15.0319 26.5319 15.5588 26.8831L17.6918 28.3069L19.8248 26.8838C20.3517 26.5327 20.7837 26.0569 21.0825 25.4987C21.3814 24.9404 21.5378 24.3171 21.5378 23.6839V19.2302H13.8457ZM17.4664 25.1585L20.5432 22.0817L19.4556 20.994L16.9226 23.527L15.928 22.5324L14.8403 23.6201L16.3787 25.1585C16.523 25.3027 16.7186 25.3837 16.9226 25.3837C17.1265 25.3837 17.3222 25.3027 17.4664 25.1585Z" fill="#213360"/>
</svg>
