<svg width="30" height="30" viewBox="0 0 30 30" fill="none" xmlns="http://www.w3.org/2000/svg">
<path d="M26.6667 1H3.33333C2.71449 1 2.121 1.24583 1.68342 1.68342C1.24583 2.121 1 2.71449 1 3.33333V26.6667C1 27.2855 1.24583 27.879 1.68342 28.3166C2.121 28.7542 2.71449 29 3.33333 29H26.6667C27.2855 29 27.879 28.7542 28.3166 28.3166C28.7542 27.879 29 27.2855 29 26.6667V3.33333C29 2.71449 28.7542 2.121 28.3166 1.68342C27.879 1.24583 27.2855 1 26.6667 1Z" stroke="white" stroke-width="2"/>
<path d="M17.5667 5.6667C16.1488 5.6667 15 6.78281 15 8.1587C15 10.6515 18.0333 12.9171 19.6667 13.4445C21.3 12.9171 24.3333 10.6523 24.3333 8.1587C24.3333 6.78203 23.1846 5.6667 21.7667 5.6667C21.3578 5.66476 20.9543 5.75976 20.5893 5.9439C20.2243 6.12804 19.9081 6.39608 19.6667 6.72603C19.4252 6.39608 19.1091 6.12804 18.744 5.9439C18.379 5.75976 17.9755 5.66476 17.5667 5.6667V5.6667Z" stroke="white" stroke-width="2" stroke-linecap="round" stroke-linejoin="round"/>
</svg>
