<svg width="28" height="28" viewBox="0 0 28 28" fill="none" xmlns="http://www.w3.org/2000/svg">
<path d="M14 1.75C13.3038 1.75 12.6361 2.02656 12.1438 2.51884C11.6516 3.01113 11.375 3.67881 11.375 4.375C11.375 5.07119 11.6516 5.73887 12.1438 6.23116C12.6361 6.72344 13.3038 7 14 7C14.6962 7 15.3639 6.72344 15.8562 6.23116C16.3484 5.73887 16.625 5.07119 16.625 4.375C16.625 3.67881 16.3484 3.01113 15.8562 2.51884C15.3639 2.02656 14.6962 1.75 14 1.75ZM9.625 4.375C9.625 3.21468 10.0859 2.10188 10.9064 1.28141C11.7269 0.460936 12.8397 0 14 0C15.1603 0 16.2731 0.460936 17.0936 1.28141C17.9141 2.10188 18.375 3.21468 18.375 4.375C18.375 5.53532 17.9141 6.64812 17.0936 7.46859C16.2731 8.28906 15.1603 8.75 14 8.75C12.8397 8.75 11.7269 8.28906 10.9064 7.46859C10.0859 6.64812 9.625 5.53532 9.625 4.375ZM23.625 3.5C23.1609 3.5 22.7158 3.68437 22.3876 4.01256C22.0594 4.34075 21.875 4.78587 21.875 5.25C21.875 5.71413 22.0594 6.15925 22.3876 6.48744C22.7158 6.81563 23.1609 7 23.625 7C24.0891 7 24.5343 6.81563 24.8624 6.48744C25.1906 6.15925 25.375 5.71413 25.375 5.25C25.375 4.78587 25.1906 4.34075 24.8624 4.01256C24.5343 3.68437 24.0891 3.5 23.625 3.5ZM20.125 5.25C20.125 4.32174 20.4937 3.4315 21.1501 2.77513C21.8065 2.11875 22.6967 1.75 23.625 1.75C24.5533 1.75 25.4435 2.11875 26.0999 2.77513C26.7563 3.4315 27.125 4.32174 27.125 5.25C27.125 6.17826 26.7563 7.0685 26.0999 7.72487C25.4435 8.38125 24.5533 8.75 23.625 8.75C22.6967 8.75 21.8065 8.38125 21.1501 7.72487C20.4937 7.0685 20.125 6.17826 20.125 5.25ZM2.625 5.25C2.625 4.78587 2.80937 4.34075 3.13756 4.01256C3.46575 3.68437 3.91087 3.5 4.375 3.5C4.83913 3.5 5.28425 3.68437 5.61244 4.01256C5.94063 4.34075 6.125 4.78587 6.125 5.25C6.125 5.71413 5.94063 6.15925 5.61244 6.48744C5.28425 6.81563 4.83913 7 4.375 7C3.91087 7 3.46575 6.81563 3.13756 6.48744C2.80937 6.15925 2.625 5.71413 2.625 5.25ZM4.375 1.75C3.44674 1.75 2.5565 2.11875 1.90013 2.77513C1.24375 3.4315 0.875 4.32174 0.875 5.25C0.875 6.17826 1.24375 7.0685 1.90013 7.72487C2.5565 8.38125 3.44674 8.75 4.375 8.75C5.30326 8.75 6.1935 8.38125 6.84987 7.72487C7.50625 7.0685 7.875 6.17826 7.875 5.25C7.875 4.32174 7.50625 3.4315 6.84987 2.77513C6.1935 2.11875 5.30326 1.75 4.375 1.75ZM5.425 22.7465C4.95116 22.7702 4.47744 22.6974 4.03263 22.5323C3.58781 22.3673 3.18119 22.1136 2.83747 21.7866C2.49375 21.4595 2.22011 21.066 2.03316 20.63C1.84622 20.1939 1.74988 19.7244 1.75 19.25V12.6875C1.75 12.5715 1.79609 12.4602 1.87814 12.3781C1.96019 12.2961 2.07147 12.25 2.1875 12.25H5.2745C5.3445 11.6077 5.572 11.011 5.91325 10.5H2.1875C0.98 10.5 3.12166e-08 11.48 3.12166e-08 12.6875V19.25C-8.16653e-05 19.9992 0.160193 20.7398 0.470053 21.4219C0.779913 22.104 1.23218 22.7119 1.79647 23.2048C2.36076 23.6976 3.024 24.064 3.74162 24.2792C4.45924 24.4945 5.21462 24.5536 5.957 24.4527C5.72146 23.9038 5.54319 23.332 5.425 22.7465ZM22.043 24.4527C22.7854 24.5536 23.5408 24.4945 24.2584 24.2792C24.976 24.064 25.6392 23.6976 26.2035 23.2048C26.7678 22.7119 27.2201 22.104 27.5299 21.4219C27.8398 20.7398 28.0001 19.9992 28 19.25V12.6875C28 11.48 27.02 10.5 25.8125 10.5H22.0868C22.4298 11.011 22.6555 11.6077 22.7255 12.25H25.8125C25.9285 12.25 26.0398 12.2961 26.1219 12.3781C26.2039 12.4602 26.25 12.5715 26.25 12.6875V19.25C26.2501 19.7244 26.1538 20.1939 25.9668 20.63C25.7799 21.066 25.5062 21.4595 25.1625 21.7866C24.8188 22.1136 24.4122 22.3673 23.9674 22.5323C23.5226 22.6974 23.0488 22.7702 22.575 22.7465C22.4568 23.332 22.2785 23.9038 22.043 24.4527ZM9.1875 10.5C7.98 10.5 7 11.48 7 12.6875V21C7 22.8565 7.7375 24.637 9.05025 25.9497C10.363 27.2625 12.1435 28 14 28C15.8565 28 17.637 27.2625 18.9497 25.9497C20.2625 24.637 21 22.8565 21 21V12.6875C21 11.48 20.02 10.5 18.8125 10.5H9.1875ZM8.75 12.6875C8.75 12.5715 8.79609 12.4602 8.87814 12.3781C8.96019 12.2961 9.07147 12.25 9.1875 12.25H18.8125C18.9285 12.25 19.0398 12.2961 19.1219 12.3781C19.2039 12.4602 19.25 12.5715 19.25 12.6875V21C19.25 22.3924 18.6969 23.7277 17.7123 24.7123C16.7277 25.6969 15.3924 26.25 14 26.25C12.6076 26.25 11.2723 25.6969 10.2877 24.7123C9.30312 23.7277 8.75 22.3924 8.75 21V12.6875Z" fill="#213360"/>
</svg>
