<svg width="20" height="32" viewBox="0 0 20 32" fill="none" xmlns="http://www.w3.org/2000/svg">
<path d="M20 7.88525V8.63525H19.25V7.88525H20ZM7.68752 8.63525V7.88525H6.93752V8.63525H7.68752Z" stroke="#213360" stroke-width="1.5"/>
<path d="M15.0938 16.2459C15.0938 16.5182 14.9642 16.8154 14.6697 17.0593C14.3711 17.3066 13.9406 17.4631 13.4688 17.4631C12.9969 17.4631 12.5664 17.3066 12.2678 17.0593C11.9733 16.8154 11.8438 16.5182 11.8438 16.2459C11.8438 16.1655 11.8963 15.9504 12.0811 15.5983C12.252 15.2725 12.4915 14.9119 12.7505 14.5713C13.003 14.2391 13.2608 13.9433 13.4688 13.7342C13.6767 13.9433 13.9345 14.2391 14.187 14.5713C14.446 14.9119 14.6855 15.2725 14.8564 15.5983C15.0412 15.9504 15.0938 16.1655 15.0938 16.2459Z" stroke="#213360" stroke-width="1.5"/>
<path d="M13.4688 7.88516V3.95068M20 2.47525H4.5625C2.88337 2.47525 1 4.03527 1 5.42611V31.0002" stroke="#213360" stroke-width="1.5"/>
<path d="M13.4535 21.6562V23.6235C13.4535 23.6874 16.3748 23.6235 16.3748 23.6235V27.558H13.4535C13.3823 27.558 13.4535 30.5088 13.4535 30.5088" stroke="#213360" stroke-width="1.5" stroke-linecap="round" stroke-linejoin="round"/>
<path d="M15.25 1H11.6875V3.95086H15.25V1Z" stroke="#213360" stroke-width="1.5" stroke-linecap="round" stroke-linejoin="round"/>
<path d="M15.8438 15.2454C15.8438 15.7671 15.5935 16.2675 15.1481 16.6364C14.7027 17.0054 14.0986 17.2126 13.4688 17.2126C12.8389 17.2126 12.2348 17.0054 11.7894 16.6364C11.344 16.2675 11.0938 15.7671 11.0938 15.2454C11.0938 14.1595 13.1279 11.8027 13.4688 11.8027C13.8096 11.8027 15.8438 14.1595 15.8438 15.2454Z" stroke="#213360" stroke-width="0.2" stroke-linecap="round" stroke-linejoin="round"/>
</svg>
